<?xml version="1.0" encoding="UTF-8"?>
<svg width="16px" height="16px" viewBox="0 0 16 16" version="1.1" xmlns="http://www.w3.org/2000/svg" xmlns:xlink="http://www.w3.org/1999/xlink">
    <!-- Generator: Sketch 50.2 (55047) - http://www.bohemiancoding.com/sketch -->
    <title>平台管理</title>
    <desc>Created with Sketch.</desc>
    <defs></defs>
    <g id="平台管理" stroke="none" stroke-width="1" fill="none" fill-rule="evenodd">
        <path d="M14,11.744 L14,3.744 L2,3.744 L2,11.744 L14,11.744 Z M14,2.4 C14.3626685,2.4 14.677332,2.533332 14.944,2.8 C15.210668,3.066668 15.344,3.38133152 15.344,3.744 L15.312,11.744 C15.312,12.1066685 15.1840013,12.4159987 14.928,12.672 C14.6719987,12.9280013 14.3626685,13.056 14,13.056 L10.656,13.056 L10.656,14.4 L5.344,14.4 L5.344,13.056 L2,13.056 C1.63733152,13.056 1.322668,12.9280013 1.056,12.672 C0.789332,12.4159987 0.656,12.1066685 0.656,11.744 L0.656,3.744 C0.656,3.38133152 0.789332,3.066668 1.056,2.8 C1.322668,2.533332 1.63733152,2.4 2,2.4 L14,2.4 Z" id="tv---material" fill="#1E88E5"></path>
    </g>
</svg>