<?xml version="1.0" encoding="UTF-8"?>
<svg width="16px" height="16px" viewBox="0 0 16 16" version="1.1" xmlns="http://www.w3.org/2000/svg" xmlns:xlink="http://www.w3.org/1999/xlink">
    <!-- Generator: Sketch 50.2 (55047) - http://www.bohemiancoding.com/sketch -->
    <title>我的目标</title>
    <desc>Created with Sketch.</desc>
    <defs></defs>
    <g id="我的目标" stroke="none" stroke-width="1" fill="none" fill-rule="evenodd">
        <path d="M11.5,14.5 C11.6354173,14.5 11.7526037,14.5494787 11.8515625,14.6484375 C11.9505213,14.7473963 12,14.8645827 12,15 C12,15.1354173 11.9505213,15.2526037 11.8515625,15.3515625 C11.7526037,15.4505213 11.6354173,15.5 11.5,15.5 L4.46875,15.5 C4.33333266,15.5 4.21614633,15.4505213 4.1171875,15.3515625 C4.01822867,15.2526037 3.96875,15.1354173 3.96875,15 C3.96875,14.8645827 4.01822867,14.7473963 4.1171875,14.6484375 C4.21614633,14.5494787 4.33333266,14.5 4.46875,14.5 L11.5,14.5 Z M15.890625,1.90625 C15.9010417,1.93750016 15.9218748,2.29687156 15.953125,2.984375 C15.9843752,3.67187844 15.7552108,4.31770531 15.265625,4.921875 C14.9843736,5.26562672 14.6250022,5.52864492 14.1875,5.7109375 C13.7499978,5.89323008 13.2395863,5.98958328 12.65625,6 C12.4999992,6.46875234 12.2838555,6.90624797 12.0078125,7.3125 C11.7317695,7.71875203 11.4114602,8.0755193 11.046875,8.3828125 C10.6822898,8.6901057 10.2812522,8.9401032 9.84375,9.1328125 C9.40624781,9.3255218 8.94271078,9.44791641 8.453125,9.5 L8.453125,12.984375 L10,12.984375 C10.1354173,12.984375 10.2526037,13.0338537 10.3515625,13.1328125 C10.4505213,13.2317713 10.5,13.3489577 10.5,13.484375 C10.5,13.6197923 10.4505213,13.7369787 10.3515625,13.8359375 C10.2526037,13.9348963 10.1354173,13.984375 10,13.984375 L5.96875,13.984375 C5.82291594,13.984375 5.70312547,13.9348963 5.609375,13.8359375 C5.51562453,13.7369787 5.46875,13.6197923 5.46875,13.484375 C5.46875,13.3489577 5.51562453,13.2317713 5.609375,13.1328125 C5.70312547,13.0338537 5.82291594,12.984375 5.96875,12.984375 L7.453125,12.984375 L7.453125,9.5 C6.97395594,9.44791641 6.51562719,9.3255218 6.078125,9.1328125 C5.64062281,8.9401032 5.23958516,8.6901057 4.875,8.3828125 C4.51041484,8.0755193 4.19010555,7.71875203 3.9140625,7.3125 C3.63801945,6.90624797 3.42187578,6.46875234 3.265625,6 C2.70312219,5.97916656 2.20833547,5.88020922 1.78125,5.703125 C1.35416453,5.52604078 1.00520969,5.26562672 0.734375,4.921875 C0.244789219,4.31770531 0.0156248437,3.67187844 0.046875,2.984375 C0.0781251562,2.29687156 0.0989582812,1.93750016 0.109375,1.90625 C0.130208437,1.78124938 0.187499531,1.68229203 0.28125,1.609375 C0.375000469,1.53645797 0.479166094,1.5 0.59375,1.5 L2.96875,1.5 L2.96875,1 C2.96875,0.864582656 3.01822867,0.747396328 3.1171875,0.6484375 C3.21614633,0.549478672 3.33333266,0.5 3.46875,0.5 L12.453125,0.5 C12.5989591,0.5 12.7187495,0.549478672 12.8125,0.6484375 C12.9062505,0.747396328 12.953125,0.864582656 12.953125,1 L12.953125,1.5 L15.40625,1.5 C15.5208339,1.5 15.6249995,1.53645797 15.71875,1.609375 C15.8125005,1.68229203 15.8697916,1.78124938 15.890625,1.90625 Z M1.5,4.296875 C1.6666675,4.49479266 1.87760289,4.65104109 2.1328125,4.765625 C2.38802211,4.88020891 2.68749828,4.95312484 3.03125,4.984375 C3.01041656,4.84895766 2.99479172,4.71614648 2.984375,4.5859375 C2.97395828,4.45572852 2.96875,4.32291734 2.96875,4.1875 L2.96875,2.5 L1.046875,2.5 C1.03645828,2.72916781 1.05468727,3.01822742 1.1015625,3.3671875 C1.14843773,3.71614758 1.28124891,4.02604031 1.5,4.296875 Z M11.953125,4.1875 L11.953125,1.5 L3.96875,1.5 L3.96875,4.1875 C3.96875,4.79166969 4.07291562,5.3567682 4.28125,5.8828125 C4.48958437,6.4088568 4.77603984,6.86718555 5.140625,7.2578125 C5.50521016,7.64843945 5.92968508,7.95833219 6.4140625,8.1875 C6.89843992,8.41666781 7.41666391,8.53125 7.96875,8.53125 C8.52083609,8.53125 9.03906008,8.41666781 9.5234375,8.1875 C10.0078149,7.95833219 10.4296857,7.64843945 10.7890625,7.2578125 C11.1484393,6.86718555 11.4322906,6.4088568 11.640625,5.8828125 C11.8489594,5.3567682 11.953125,4.79166969 11.953125,4.1875 Z M14.5,4.296875 C14.7187511,4.02604031 14.8515623,3.71614758 14.8984375,3.3671875 C14.9453127,3.01822742 14.9635417,2.72916781 14.953125,2.5 L12.953125,2.5 L12.953125,4.1875 C12.953125,4.32291734 12.9479167,4.45833266 12.9375,4.59375 C12.9270833,4.72916734 12.9114584,4.85937437 12.890625,4.984375 C13.2552102,4.96354156 13.5703112,4.89322977 13.8359375,4.7734375 C14.1015638,4.65364523 14.3229158,4.49479266 14.5,4.296875 Z" id="Trophy---simple-line-icons" fill="#FFF"></path>
    </g>
</svg>