<?xml version="1.0" encoding="UTF-8"?>
<svg width="16px" height="16px" viewBox="0 0 16 16" version="1.1" xmlns="http://www.w3.org/2000/svg" xmlns:xlink="http://www.w3.org/1999/xlink">
    <!-- Generator: Sketch 50.2 (55047) - http://www.bohemiancoding.com/sketch -->
    <title>我的审批</title>
    <desc>Created with Sketch.</desc>
    <defs></defs>
    <g id="我的审批" stroke="none" stroke-width="1" fill="none" fill-rule="evenodd">
        <g id="Group-19" transform="translate(1.000000, 0.000000)" fill="#448AFF" fill-rule="nonzero">
            <path d="M10.0469515,9.05598826 L2.74814647,9.05598826 C2.48181809,9.05598826 2.26513108,9.27871256 2.26513108,9.55251005 C2.26513108,9.82632735 2.48181809,10.0491111 2.74814647,10.0491111 L10.0469515,10.0491111 C10.3132991,10.0491111 10.5300054,9.82634716 10.5300054,9.55251005 C10.5300054,9.27871256 10.3133184,9.05598826 10.0469515,9.05598826 Z M10.0469515,11.9021741 L2.74814647,11.9021741 C2.48181809,11.9021741 2.26513108,12.1248984 2.26513108,12.3986959 C2.26513108,12.6725132 2.48181809,12.895297 2.74814647,12.895297 L10.0469515,12.895297 C10.3132991,12.895297 10.5300054,12.672533 10.5300054,12.3986959 C10.5300054,12.1248984 10.3133184,11.9021741 10.0469515,11.9021741 Z M12.3121404,4.91608697 C12.0457927,4.91608697 11.8290865,5.13885092 11.8290865,5.41266822 L11.8290865,14.9860079 C11.8290865,14.9885447 11.8290865,14.9914383 11.8290672,14.9944111 C11.8121216,14.9998217 11.7788475,15.006897 11.7204731,15.006897 L1.10853526,15.006897 C1.02729692,15.006897 0.966030788,14.949343 0.966030788,14.8730008 L0.966030788,1.18336406 C0.966030788,1.09633945 0.984383648,1.02283133 1.00015321,0.993142678 L8.03351661,0.993142678 C8.29984499,0.993142678 8.51655128,0.770378734 8.51655128,0.496561433 C8.51655128,0.222763944 8.29986426,0 8.03351661,0 L0.986369292,0 C0.414847661,0 0,0.497671286 0,1.18334423 L0,14.872981 C0,15.494421 0.497281254,16 1.10851599,16 L11.720473,16 C12.3632469,16 12.7950979,15.5924847 12.7950979,14.9859881 L12.7950979,5.41268803 C12.7951172,5.13887073 12.5784688,4.91608697 12.3121404,4.91608697 Z M14.8586811,0.201082096 C14.6702367,0.00737259677 14.3647543,0.00737259677 14.1763098,0.201082096 L10.9703253,3.49701726 L9.53789695,2.02441683 C9.34945251,1.83070733 9.0439701,1.83070733 8.85552566,2.02441683 C8.66711979,2.21812633 8.66711979,2.53219573 8.85552566,2.72592504 L10.6291397,4.54927959 C10.7196316,4.6423093 10.8423759,4.69457163 10.9703253,4.69457163 C11.0982748,4.69457163 11.2210191,4.64230932 11.311511,4.54927959 L14.8586811,0.90261014 C15.0471063,0.708861015 15.0471063,0.394791596 14.8586811,0.201082096 Z M6.52341637,3.10492101 L2.74816576,3.10492101 C2.48183738,3.10492101 2.26515037,3.32768496 2.26515037,3.60150226 C2.26515037,3.87529975 2.48183738,4.09804386 2.74816576,4.09804386 L6.52341637,4.09804386 C6.78976402,4.09804386 7.00645104,3.87529975 7.00645104,3.60150226 C7.00645104,3.32768496 6.78974475,3.10492101 6.52341637,3.10492101 Z M10.0469515,5.95108706 L2.74814647,5.95108706 C2.48181809,5.95108706 2.26513108,6.17383117 2.26513108,6.44764849 C2.26513108,6.72146581 2.48181809,6.94420993 2.74814647,6.94420993 L10.0469515,6.94420993 C10.3132991,6.94420993 10.5300054,6.72144598 10.5300054,6.44764849 C10.5300054,6.173851 10.3133184,5.95108706 10.0469515,5.95108706 Z" id="Shape"></path>
        </g>
    </g>
</svg>