<?xml version="1.0" encoding="UTF-8"?>
<svg width="16px" height="16px" viewBox="0 0 16 16" version="1.1" xmlns="http://www.w3.org/2000/svg" xmlns:xlink="http://www.w3.org/1999/xlink">
    <!-- Generator: Sketch 50.2 (55047) - http://www.bohemiancoding.com/sketch -->
    <title>我的考核</title>
    <desc>Created with Sketch.</desc>
    <defs></defs>
    <g id="我的考核" stroke="none" stroke-width="1" fill="none" fill-rule="evenodd">
        <path d="M12.484375,15 L12.484375,8.640625 L13.484375,7.6875 L13.484375,15 C13.484375,15.2812514 13.3880218,15.5182282 13.1953125,15.7109375 C13.0026032,15.9036468 12.7656264,16 12.484375,16 L0.984375,16 C0.713540312,16 0.479167656,15.9036468 0.28125,15.7109375 C0.0833323438,15.5182282 -0.015625,15.2812514 -0.015625,15 L-0.015625,2.5 C-0.015625,2.22916531 0.0833323438,1.99479266 0.28125,1.796875 C0.479167656,1.59895734 0.713540312,1.5 0.984375,1.5 L9,1.5 L9.03125,1.53125 L8.015625,2.5 L0.984375,2.5 L0.984375,15 L12.484375,15 Z M15.21875,0.640625 C15.479168,0.89062625 15.6744785,1.14583203 15.8046875,1.40625 C15.9348965,1.66666797 16.0052083,1.93749859 16.015625,2.21875 C16.015625,2.48958469 15.9531256,2.76041531 15.828125,3.03125 C15.7031244,3.30208469 15.510418,3.57291531 15.25,3.84375 C15.1354161,3.96875063 14.7239619,4.38020484 14.015625,5.078125 C13.3072881,5.77604516 12.5468791,6.52343352 11.734375,7.3203125 C10.9218709,8.11719148 10.1744826,8.85416328 9.4921875,9.53125 C8.80989242,10.2083367 8.43229203,10.583333 8.359375,10.65625 C8.32812484,10.6770834 8.2994793,10.6979166 8.2734375,10.71875 C8.2473957,10.7395834 8.21875016,10.7552083 8.1875,10.765625 C8.06249938,10.7968752 7.80729359,10.8749994 7.421875,11 C7.03645641,11.1250006 6.63541875,11.2526035 6.21875,11.3828125 C5.80208125,11.5130215 5.43229328,11.632812 5.109375,11.7421875 C4.78645672,11.851563 4.61979172,11.90625 4.609375,11.90625 C4.58854156,11.90625 4.56770844,11.9088541 4.546875,11.9140625 C4.52604156,11.9192709 4.50520844,11.921875 4.484375,11.921875 C4.43229141,11.921875 4.38020859,11.9114584 4.328125,11.890625 C4.27604141,11.8697916 4.22916688,11.8385419 4.1875,11.796875 C4.13541641,11.7447914 4.09895844,11.6796879 4.078125,11.6015625 C4.05729156,11.5234371 4.05729156,11.447917 4.078125,11.375 C4.078125,11.3645833 4.12760367,11.2005224 4.2265625,10.8828125 C4.32552133,10.5651026 4.43749938,10.2005229 4.5625,9.7890625 C4.68750063,9.37760211 4.80729109,8.97396031 4.921875,8.578125 C5.03645891,8.18228969 5.11979141,7.9010425 5.171875,7.734375 C5.18229172,7.70312484 5.19531242,7.67187516 5.2109375,7.640625 C5.22656258,7.60937484 5.24999984,7.57812516 5.28125,7.546875 L6.3203125,6.5078125 C7.0130243,5.8151007 7.78124578,5.04948336 8.625,4.2109375 C9.46875422,3.37239164 10.2499964,2.59114945 10.96875,1.8671875 C11.6875036,1.14322555 12.0781247,0.755208594 12.140625,0.703125 C12.2239588,0.61979125 12.4088527,0.481771797 12.6953125,0.2890625 C12.9817723,0.0963532031 13.328123,0 13.734375,0 C14.0052097,0 14.2656237,0.0546869531 14.515625,0.1640625 C14.7656263,0.273438047 14.9999989,0.432290625 15.21875,0.640625 Z M14.53125,3.140625 C14.6979175,2.9739575 14.8203121,2.81510492 14.8984375,2.6640625 C14.9765629,2.51302008 15.015625,2.36979234 15.015625,2.234375 C15.0052083,2.09895766 14.9609379,1.95833406 14.8828125,1.8125 C14.8046871,1.66666594 14.6875008,1.52083406 14.53125,1.375 C14.3958327,1.24999937 14.2630215,1.15625031 14.1328125,1.09375 C14.0026035,1.03124969 13.8697923,1 13.734375,1 C13.5052072,1 13.3046884,1.06249937 13.1328125,1.1875 C12.9609366,1.31250063 12.8645834,1.38541656 12.84375,1.40625 L9.7109375,4.5390625 C8.93489195,5.31510805 8.19010773,6.05728812 7.4765625,6.765625 C6.76301727,7.47396187 6.30208437,7.93229063 6.09375,8.140625 C6.02083297,8.40104297 5.9140632,8.7682268 5.7734375,9.2421875 C5.6328118,9.7161482 5.49479234,10.1718728 5.359375,10.609375 C5.77604375,10.4739577 6.2213518,10.3307299 6.6953125,10.1796875 C7.1692732,10.0286451 7.52083219,9.91666703 7.75,9.84375 L8.0625,9.546875 C9.062505,8.55728672 9.95051695,7.67969133 10.7265625,6.9140625 C11.502608,6.14843367 12.1614556,5.49739852 12.703125,4.9609375 C13.2447944,4.42447648 13.6692693,4.00520984 13.9765625,3.703125 C14.2838557,3.40104016 14.4687497,3.21354203 14.53125,3.140625 Z" id="Note---simple-line-icons" fill="#FFF"></path>
    </g>
</svg>