<?xml version="1.0" encoding="UTF-8"?>
<svg width="16px" height="16px" viewBox="0 0 16 16" version="1.1" xmlns="http://www.w3.org/2000/svg" xmlns:xlink="http://www.w3.org/1999/xlink">
    <!-- Generator: Sketch 50.2 (55047) - http://www.bohemiancoding.com/sketch -->
    <title>报表</title>
    <desc>Created with Sketch.</desc>
    <defs></defs>
    <g id="报表" stroke="none" stroke-width="1" fill="none" fill-rule="evenodd">
        <path d="M4.25,5 C4.38541734,5 4.50260367,5.04947867 4.6015625,5.1484375 C4.70052133,5.24739633 4.75,5.36458266 4.75,5.5 L4.75,15.5 C4.75,15.6354173 4.70052133,15.7526037 4.6015625,15.8515625 C4.50260367,15.9505213 4.38541734,16 4.25,16 L0.75,16 C0.614582656,16 0.497396328,15.9505213 0.3984375,15.8515625 C0.299478672,15.7526037 0.25,15.6354173 0.25,15.5 L0.25,5.5 C0.25,5.36458266 0.299478672,5.24739633 0.3984375,5.1484375 C0.497396328,5.04947867 0.614582656,5 0.75,5 L4.25,5 Z M3.75,15 L3.75,6 L1.25,6 L1.25,15 L3.75,15 Z M9.75,7.96875 C9.88541734,7.96875 10.0026037,8.01822867 10.1015625,8.1171875 C10.2005213,8.21614633 10.25,8.33333266 10.25,8.46875 L10.25,15.5 C10.25,15.6354173 10.2005213,15.7526037 10.1015625,15.8515625 C10.0026037,15.9505213 9.88541734,16 9.75,16 L6.25,16 C6.10416594,16 5.98437547,15.9505213 5.890625,15.8515625 C5.79687453,15.7526037 5.75,15.6354173 5.75,15.5 L5.75,8.46875 C5.75,8.33333266 5.79687453,8.21614633 5.890625,8.1171875 C5.98437547,8.01822867 6.10416594,7.96875 6.25,7.96875 L9.75,7.96875 Z M9.25,15 L9.25,8.96875 L6.75,8.96875 L6.75,15 L9.25,15 Z M15.25,0 C15.3854173,0 15.5026037,0.0494786719 15.6015625,0.1484375 C15.7005213,0.247396328 15.75,0.364582656 15.75,0.5 L15.75,15.5 C15.75,15.6354173 15.7005213,15.7526037 15.6015625,15.8515625 C15.5026037,15.9505213 15.3854173,16 15.25,16 L11.75,16 C11.6145827,16 11.4973963,15.9505213 11.3984375,15.8515625 C11.2994787,15.7526037 11.25,15.6354173 11.25,15.5 L11.25,0.5 C11.25,0.364582656 11.2994787,0.247396328 11.3984375,0.1484375 C11.4973963,0.0494786719 11.6145827,0 11.75,0 L15.25,0 Z M14.75,15 L14.75,1 L12.25,1 L12.25,15 L14.75,15 Z" id="Chart---simple-line-icons" fill="#FFF"></path>
    </g>
</svg>